<?xml version="1.0" encoding="UTF-8"?>
<svg xmlns="http://www.w3.org/2000/svg" viewBox="0 0 32 32" width="32" height="32">
  <!-- Pure geometric cross - no 3D, no filters, optimized for small sizes -->
  
  <!-- Metal frame -->
  <path d="M12 2 L20 2 L20 12 L30 12 L30 20 L20 20 L20 30 L12 30 L12 20 L2 20 L2 12 L12 12 Z" 
        fill="#003D82"/>
  
  <!-- PCB interior -->
  <path d="M13 3 L19 3 L19 13 L29 13 L29 19 L19 19 L19 29 L13 29 L13 19 L3 19 L3 13 L13 13 Z" 
        fill="#0D1F28"/>
  
  <!-- Simplified traces -->
  <g stroke="#2BA9B8" stroke-width="1" fill="none" stroke-linecap="round">
    <path d="M5 16 L27 16"/>
    <path d="M16 5 L16 27"/>
  </g>
  
  <!-- Key nodes only -->
  <g fill="#2BA9B8">
    <circle cx="16" cy="16" r="2"/>
    <circle cx="13" cy="13" r="1"/>
    <circle cx="19" cy="13" r="1"/>
    <circle cx="13" cy="19" r="1"/>
    <circle cx="19" cy="19" r="1"/>
  </g>
</svg>
