<svg xmlns="http://www.w3.org/2000/svg" width="64" height="64" viewBox="0 0 64 64" role="img" aria-label="Google">
  <circle cx="32" cy="32" r="28" fill="#0B1118" stroke="#2BA9B8" stroke-opacity="0.35" stroke-width="2"/>
  <path d="M49 32.5c0-1.2-.1-2.1-.3-3H32v5.8h9.7c-.4 2-1.6 5-4.4 7.1l-.1.4 5.4 4.2.4.0C46.9 43.4 49 38.4 49 32.5z" fill="#2BA9B8"/>
  <path d="M32 49c4.8 0 8.8-1.6 11.7-4.4l-5.6-4.3c-1.5 1-3.6 1.8-6.1 1.8-4.7 0-8.6-3.1-10-7.4l-.4.0-5.6 4.3-.1.4C18.8 45.3 25 49 32 49z" fill="#E6F0F7" opacity="0.9"/>
  <path d="M22 34.7c-.4-1.2-.6-2.4-.6-3.7s.2-2.5.6-3.7l-.0-.3-5.7-4.3-.4.2C14.7 25.4 14 28.1 14 31s.7 5.6 1.9 8.1l6.1-4.4z" fill="#9FB2C1"/>
  <path d="M32 20.9c2.6 0 4.4 1.1 5.4 2l4-3.9C40.8 17.2 36.8 15 32 15c-7 0-13.2 3.7-16.1 9.2l6.1 4.4c1.4-4.3 5.3-7.7 10-7.7z" fill="#E6F0F7" opacity="0.9"/>
</svg>