<svg width="900" height="500" viewBox="0 0 900 500" fill="none" xmlns="http://www.w3.org/2000/svg">
  <defs>
    <linearGradient id="controllerBody" x1="0" y1="0" x2="1" y2="1">
      <stop offset="0" stop-color="#0f1b2b"/>
      <stop offset="1" stop-color="#0a0f19"/>
    </linearGradient>
  </defs>
  <path d="M170 270c0-90 70-160 160-160h240c90 0 160 70 160 160 0 70-30 130-70 150-30 16-70 10-100-20l-40-40h-140l-40 40c-30 30-70 36-100 20-40-20-70-80-70-150z" fill="url(#controllerBody)" stroke="#1f3354" stroke-width="6"/>
  <circle cx="320" cy="260" r="40" fill="#14263d"/>
  <circle cx="580" cy="260" r="32" fill="#14263d"/>
  <circle cx="640" cy="230" r="10" fill="#2BA9B8" fill-opacity="0.5"/>
  <circle cx="670" cy="260" r="10" fill="#2BA9B8" fill-opacity="0.5"/>
  <circle cx="640" cy="290" r="10" fill="#2BA9B8" fill-opacity="0.5"/>
  <circle cx="610" cy="260" r="10" fill="#2BA9B8" fill-opacity="0.5"/>
</svg>
